<svg xmlns="http://www.w3.org/2000/svg" width="71" height="72" viewBox="0 0 71 72"><path d="M725.242,3098.2l-2.7-1.77a1.209,1.209,0,0,1-.349-1.66,1.173,1.173,0,0,1,1.637-.354l2.648,1.737a3.522,3.522,0,0,0,4.8-1.35l13.584-23.468a1.174,1.174,0,0,1,1.622-.428,1.208,1.208,0,0,1,.422,1.642l-13.58,23.462A5.907,5.907,0,0,1,728.2,3099,5.819,5.819,0,0,1,725.242,3098.2Zm-16.719-1.04-21.787-22.069a6.055,6.055,0,0,1,0-8.488l30.783-31.136c-8.047-1.853-13.045-1.979-14.508-1.544.618.64,2.542,2,7.184,3.853a1.2,1.2,0,0,1,.667,1.556,1.179,1.179,0,0,1-1.538.677c-9.607-3.838-9.045-5.963-8.833-6.764.44-1.668,2.783-2.224,7.6-1.8a86.361,86.361,0,0,1,14.233,2.751c3.441.933,20.545,5.814,19.378,10.23-.427,1.61-2.644,1.808-3.373,1.874-.035,0-.071,0-.105,0a1.2,1.2,0,0,1-.1-2.4,5.651,5.651,0,0,0,1.057-.176,15.184,15.184,0,0,0-3.843-2.37,4.839,4.839,0,0,0-.663,2.443,4.74,4.74,0,1,0,4.74-4.8,1.2,1.2,0,0,1,0-2.4,7.2,7.2,0,1,1-7.111,7.2,7.278,7.278,0,0,1,.871-3.422,89.142,89.142,0,0,0-11.462-3.867c-.507-.138-1-.264-1.486-.391l-31.81,32.174a3.631,3.631,0,0,0,0,5.092L710.2,3095.46a3.608,3.608,0,0,0,5.027,0l35.194-35.7a9.719,9.719,0,0,0,3.209-7.554V3033a3.583,3.583,0,0,0-3.556-3.6H731.113a9.483,9.483,0,0,0-7.457,3.249,1.172,1.172,0,0,1-1.676,0,1.21,1.21,0,0,1,0-1.7,11.878,11.878,0,0,1,9.133-3.953h18.961a5.971,5.971,0,0,1,5.926,6v19.206a12.174,12.174,0,0,1-3.9,9.25l-35.194,35.7a5.871,5.871,0,0,1-8.38,0Zm4.817-18.523V3061.8a1.185,1.185,0,1,1,2.37,0v16.839a1.185,1.185,0,1,1-2.37,0Zm-9.51-6.025a2.4,2.4,0,1,1,2.4,2.37A2.385,2.385,0,0,1,703.83,3072.61Zm16.591-7.2a2.4,2.4,0,1,1,2.4,2.37A2.385,2.385,0,0,1,720.42,3065.41Z" transform="translate(-685 -3027)" fill="#343640"/></svg>