<svg xmlns="http://www.w3.org/2000/svg" width="17.006" height="15.005" viewBox="0 0 17.006 15.005"><path d="M443.974,1051.471a4.7,4.7,0,0,0-4.6-4.474,4.626,4.626,0,0,0-3.919,2.143,4.453,4.453,0,0,0-3.826-2.144,4.7,4.7,0,0,0-4.6,4.474,4.387,4.387,0,0,0,.145,1.7,7.233,7.233,0,0,0,2.354,3.729l5.925,5.1,6.026-5.1a7.235,7.235,0,0,0,2.354-3.729A4.395,4.395,0,0,0,443.974,1051.471Zm-.782,1.558a6.614,6.614,0,0,1-2.155,3.409l-5.585,4.728-5.489-4.727a6.618,6.618,0,0,1-2.157-3.411,3.83,3.83,0,0,1-.136-1.459l0-.031a4.075,4.075,0,0,1,3.952-3.921,3.834,3.834,0,0,1,3.523,2.332l.3.677.3-.677a3.956,3.956,0,0,1,3.62-2.332,4.088,4.088,0,0,1,3.956,3.95A3.835,3.835,0,0,1,443.193,1053.029Z" transform="translate(-426.996 -1046.997)"/></svg>