<svg xmlns="http://www.w3.org/2000/svg" width="57.001" height="81" viewBox="0 0 57.001 81"><path d="M1172,3072.069c0-15.4,12.785-27.931,28.5-27.931.867,0,1.728.05,2.59.13.171.015.342.026.513.045.756.082,1.5.2,2.25.338.278.053.554.111.83.17.635.14,1.264.3,1.886.477.376.109.744.232,1.114.357s.75.261,1.121.4q.868.334,1.707.719c.271.124.544.242.813.374v-13.879c0-6.329-5.753-11.479-12.825-11.479s-12.825,5.151-12.825,11.479a1.425,1.425,0,0,1-2.85,0c0-7.87,7.033-14.273,15.675-14.273s15.675,6.4,15.675,14.273v15.494a27.78,27.78,0,0,1,12.825,23.3c0,15.4-12.785,27.931-28.5,27.931S1172,3087.47,1172,3072.069Zm2.85,0c0,13.861,11.507,25.138,25.65,25.138s25.65-11.277,25.65-25.138a25.029,25.029,0,0,0-12.459-21.518,26.158,26.158,0,0,0-4.094-1.957c-.251-.094-.5-.186-.757-.273-.389-.132-.779-.261-1.175-.374q-.726-.208-1.471-.372c-.362-.081-.725-.152-1.09-.218-.526-.094-1.057-.177-1.594-.239-.243-.028-.485-.053-.729-.075-.754-.066-1.512-.114-2.281-.114C1186.357,3046.931,1174.85,3058.208,1174.85,3072.069Zm24.224,16.759v-4.272a12.9,12.9,0,0,1-6.57-2.676l-3.088,3.026a1.444,1.444,0,0,1-2.015,0,1.376,1.376,0,0,1,0-1.975l3.088-3.026a12.385,12.385,0,0,1-2.731-6.439H1183.4a1.4,1.4,0,1,1,0-2.793h4.359a12.386,12.386,0,0,1,2.731-6.44l-3.088-3.027a1.374,1.374,0,0,1,0-1.974,1.444,1.444,0,0,1,2.015,0l3.088,3.026a12.9,12.9,0,0,1,6.57-2.676v-4.272a1.425,1.425,0,0,1,2.85,0v4.272a12.9,12.9,0,0,1,6.571,2.676l3.088-3.026a1.444,1.444,0,0,1,2.015,0,1.374,1.374,0,0,1,0,1.974l-3.088,3.027a12.377,12.377,0,0,1,2.73,6.44h4.36a1.4,1.4,0,1,1,0,2.793h-4.36a12.376,12.376,0,0,1-2.73,6.439l3.088,3.026a1.375,1.375,0,0,1,0,1.975,1.444,1.444,0,0,1-2.015,0l-3.088-3.026a12.9,12.9,0,0,1-6.571,2.676v4.272a1.425,1.425,0,0,1-2.85,0Zm-8.549-16.759a9.977,9.977,0,1,0,9.975-9.776A9.89,9.89,0,0,0,1190.525,3072.069Z" transform="translate(-1172 -3019)" fill="#343640"/></svg>