<svg xmlns="http://www.w3.org/2000/svg" width="93.999" height="59" viewBox="0 0 93.999 59"><path d="M260.633,3089.239a8.028,8.028,0,0,1-1.7-6.586h-29.8c-.016.117-.033.234-.054.351a11.284,11.284,0,0,1-10.683,9,7.818,7.818,0,0,1-7.938-9.345h-7.67a2.737,2.737,0,0,1-2.742-3.272l.526-2.959h-6.095a1.46,1.46,0,1,1,0-2.92h15.7a1.46,1.46,0,1,1,0,2.92h-6.615l-.588,3.31h8.441a11.334,11.334,0,0,1,9.751-6.231,7.991,7.991,0,0,1,6.237,2.76,7.642,7.642,0,0,1,1.664,3.47h27.246l2-11.255a1.472,1.472,0,0,1,2.9.508l-1.91,10.748h.591a11.333,11.333,0,0,1,9.751-6.231,7.989,7.989,0,0,1,6.237,2.76,7.639,7.639,0,0,1,1.664,3.47h3.885l1.142-6.426h-1.385a4.009,4.009,0,0,1-4.036-4.829l.553-3.116a1.468,1.468,0,0,1,1.449-1.207h4.889a3.6,3.6,0,0,0-.821-2.04,3.784,3.784,0,0,0-2.96-1.27h-17.6l-.339,1.91a1.472,1.472,0,0,1-2.9-.508l4.678-26.326h-53a.5.5,0,0,0-.4.351l-4.706,26.483a1.472,1.472,0,0,1-2.9-.508l4.706-26.482a3.431,3.431,0,0,1,3.3-2.765h53.188a2.736,2.736,0,0,1,2.742,3.271l-.526,2.959H277.3a5.373,5.373,0,0,1,4.193,1.866,5.473,5.473,0,0,1,1.136,4.522l-.277,1.559a1.468,1.468,0,0,1-1.435,1.206l.717,9.667a6.492,6.492,0,0,1,3.839,2.187,6.727,6.727,0,0,1,1.407,5.632l-2.767,15.577a1.469,1.469,0,0,1-1.45,1.207h-5.053c-.016.117-.032.234-.053.351a11.286,11.286,0,0,1-10.683,9A7.988,7.988,0,0,1,260.633,3089.239Zm1.22-6.234a5.2,5.2,0,0,0,1.034,4.357,5.087,5.087,0,0,0,3.983,1.717,8.237,8.237,0,0,0,7.784-6.582,5.2,5.2,0,0,0-1.034-4.357,5.088,5.088,0,0,0-3.983-1.717A8.237,8.237,0,0,0,261.853,3083Zm-48.478,0a5.2,5.2,0,0,0,1.034,4.357,5.086,5.086,0,0,0,3.982,1.717,8.237,8.237,0,0,0,7.785-6.582,5.206,5.206,0,0,0-1.034-4.357,5.088,5.088,0,0,0-3.983-1.717A8.237,8.237,0,0,0,213.376,3083Zm66.668-14.02a1.234,1.234,0,0,0,.22,1.028,1.153,1.153,0,0,0,.917.373h1.9l.589-3.309h-3.291Zm-16.872-11.06h15.5l-.708-9.542h-13.1Zm2.214-12.462h14.28l.062-.351a2.551,2.551,0,0,0-.491-2.137,2.474,2.474,0,0,0-1.939-.822H265.973Zm.443,39.337a2.79,2.79,0,0,1-.593-2.3,3.431,3.431,0,0,1,3.3-2.765,2.737,2.737,0,0,1,2.742,3.272,3.43,3.43,0,0,1-3.3,2.764A2.8,2.8,0,0,1,265.828,3084.8Zm-48.479,0a2.792,2.792,0,0,1-.593-2.3,3.432,3.432,0,0,1,3.3-2.765,2.737,2.737,0,0,1,2.742,3.272,3.431,3.431,0,0,1-3.3,2.764A2.8,2.8,0,0,1,217.349,3084.8Zm16.37-8.376a1.461,1.461,0,1,1,0-2.921h18.65a1.461,1.461,0,1,1,0,2.921Zm-35-6.232a1.46,1.46,0,1,1,0-2.92h27.15a1.46,1.46,0,1,1,0,2.92Zm45.958-2.211a1.453,1.453,0,0,1,.414-2.024l3.036-2H211.74a1.46,1.46,0,1,1,0-2.92H249.06l-2.458-2.109a1.453,1.453,0,0,1-.151-2.06,1.48,1.48,0,0,1,2.076-.149l5.449,4.673a1.454,1.454,0,0,1-.149,2.323l-7.11,4.674a1.478,1.478,0,0,1-2.039-.411Z" transform="translate(-193 -3033)" fill="#343640"/></svg>