<svg xmlns="http://www.w3.org/2000/svg" width="26.999" height="21" viewBox="0 0 26.999 21"><path d="M1471.419,85.9A2.179,2.179,0,1,1,1473.6,88,2.143,2.143,0,0,1,1471.419,85.9Zm.871,0a1.307,1.307,0,1,0,1.306-1.26A1.286,1.286,0,0,0,1472.29,85.9Zm-7.839,0a2.179,2.179,0,1,1,2.178,2.1A2.143,2.143,0,0,1,1464.451,85.9Zm.871,0a1.307,1.307,0,1,0,1.307-1.26A1.286,1.286,0,0,0,1465.322,85.9ZM1463,82.12a1.629,1.629,0,0,1-1.6-1.227l-3.2-12.988a.085.085,0,0,0-.082-.066h-3.689a.42.42,0,1,1,0-.84h3.689a.946.946,0,0,1,.93.712l3.2,12.988a.766.766,0,0,0,.75.58h14a.73.73,0,0,0,.7-.5l2.422-7.56a.179.179,0,0,0-.171-.235H1463.8a.42.42,0,1,1,0-.84h16.145a1.065,1.065,0,0,1,.848.417,1,1,0,0,1,.155.906l-2.422,7.559a1.592,1.592,0,0,1-1.531,1.1Zm3.431-3.361a.42.42,0,1,1,0-.84h9.11a.42.42,0,0,1,0,.84Zm-.892-2.52a.42.42,0,1,1,0-.84h10.891a.42.42,0,1,1,0,.84Z" transform="translate(-1454 -67.001)"/></svg>