<svg xmlns="http://www.w3.org/2000/svg" width="17.001" height="15.997" viewBox="0 0 17.001 15.997"><path d="M1184.261,3303.079h-1.56a.91.91,0,0,0-.925.891v1.5a.91.91,0,0,0,.925.891h1.56a.909.909,0,0,0,.925-.891v-1.5A.91.91,0,0,0,1184.261,3303.079Zm.115,2.395a.113.113,0,0,1-.115.111h-1.56a.113.113,0,0,1-.115-.111v-1.5a.113.113,0,0,1,.115-.111h1.56a.113.113,0,0,1,.115.111Zm-1.018-4.472h-9.715a3.583,3.583,0,0,0-3.643,3.511v8.974a3.583,3.583,0,0,0,3.643,3.511h9.715a3.583,3.583,0,0,0,3.643-3.511v-8.974A3.583,3.583,0,0,0,1183.357,3301Zm2.834,12.485a2.787,2.787,0,0,1-2.834,2.731h-9.715a2.787,2.787,0,0,1-2.833-2.731v-5.853h4.081a4.568,4.568,0,0,0-1.247,3.121,4.861,4.861,0,0,0,9.715,0,4.567,4.567,0,0,0-1.247-3.121h4.081Zm-7.691-6.633a3.9,3.9,0,1,1-4.048,3.9A3.981,3.981,0,0,1,1178.5,3306.854Zm7.691,0h-5.012a4.99,4.99,0,0,0-5.359,0h-5.012v-2.341a2.787,2.787,0,0,1,2.833-2.731h9.715a2.787,2.787,0,0,1,2.834,2.731Zm-7.691,6.633a2.733,2.733,0,1,0-2.833-2.731A2.787,2.787,0,0,0,1178.5,3313.487Zm0-4.682a1.952,1.952,0,1,1-2.024,1.951A1.991,1.991,0,0,1,1178.5,3308.8Z" transform="translate(-1170 -3301.001)"/></svg>