<svg xmlns="http://www.w3.org/2000/svg" width="63" height="76" viewBox="0 0 63 76">
  <defs>
    <style>
      .cls-1 {
        fill: #343640;
      }
    </style>
  </defs>
  <path id="Forma_1" data-name="Forma 1" class="cls-1" d="M1649,3068.5a28.367,28.367,0,0,1,8.375-19.971,54.256,54.256,0,0,1,4.206-4.45,62,62,0,0,0,7.571-8.568,3.726,3.726,0,0,1-.22-1.339c0-.359,0-.469-.008-.588-.007-.173-.015-.362-.012-1.22a.9.9,0,0,1,.013-.149,3.411,3.411,0,0,1,.291-1.365l-3.641-7.632a.852.852,0,0,1,.77-1.219h26.693a.852.852,0,0,1,.779,1.2l-3.532,7.9a4.048,4.048,0,0,1,.174,1.283c0,.083,0,.191,0,.3v.159a.681.681,0,0,1,0,.074c0,.379,0,.507.007.625s.007.249.007.64a4.2,4.2,0,0,1-.142,1.145,99.224,99.224,0,0,0,8.065,8.2c1.27,1.182,2.471,2.3,3.659,3.506A28.361,28.361,0,0,1,1712,3068.5c0,16.265-14.13,29.5-31.5,29.5S1649,3084.766,1649,3068.5Zm13.775-23.2a52.366,52.366,0,0,0-4.1,4.342c-.017.021-.036.041-.055.061a26.678,26.678,0,0,0-7.91,18.8c0,15.325,13.366,27.794,29.8,27.794s29.793-12.469,29.793-27.795a26.682,26.682,0,0,0-9.391-20.211l-.045-.042c-1.169-1.189-2.363-2.3-3.627-3.476a100.861,100.861,0,0,1-8.015-8.124,2.131,2.131,0,0,1-.75.131h-.006c-.113,0-1.194,0-2.974,0-5.654-.006-10.531-.009-13.294-.01h-1.315a1.889,1.889,0,0,1-.483-.064A63.752,63.752,0,0,1,1662.775,3045.3Zm7.854-12.931a.852.852,0,0,1-.013.144c0,.689,0,.856.011,1.008,0,.132.01.256.009.657a2.037,2.037,0,0,0,.111.757h17.927a2.332,2.332,0,0,0,.089-.748c0-.365,0-.475-.006-.6s-.006-.276-.007-.739a.764.764,0,0,1,0-.079v-.089c0-.1,0-.2,0-.284a2.856,2.856,0,0,0-.061-.665H1670.7A2.447,2.447,0,0,0,1670.63,3032.365Zm1.559-2.591,16.27.009a2.165,2.165,0,0,1,.519.062l2.745-6.141H1667.7l2.9,6.088a1.908,1.908,0,0,1,.268-.021C1671.221,3029.774,1671.679,3029.774,1672.188,3029.774Zm-2.694,62.128c-17.384-7.6-17.15-25.13-17.145-25.306a.853.853,0,0,1,1.706.042,26.175,26.175,0,0,0,16.123,23.7.853.853,0,0,1-.684,1.562Zm10.748-3.868a1.29,1.29,0,0,1-.915-.429,1.37,1.37,0,0,1-.322-.941v-3.014a9.2,9.2,0,0,1-3.766-1.273,8.3,8.3,0,0,1-2.948-3.1,13.183,13.183,0,0,1-1.212-4.091,1.23,1.23,0,0,1,.347-.9,1.174,1.174,0,0,1,.827-.339h0l4.041-.239a1.228,1.228,0,0,1,.235-.022,1.2,1.2,0,0,1,1.158.829q.03.088.078.246a6.89,6.89,0,0,0,1.237,2.744,2.09,2.09,0,0,0,1.457.587l.089,0a2.494,2.494,0,0,0,2.072-1.052,2.2,2.2,0,0,0,.349-1.376,4.109,4.109,0,0,0-1.647-2.879l-.934-.733q-1.426-1.118-3.661-2.874a18.4,18.4,0,0,1-3.845-3.917,8.344,8.344,0,0,1-1.29-4.478,7.387,7.387,0,0,1,3.551-6.62,9.2,9.2,0,0,1,3.862-1.26c0-1.076.005-2.572,0-2.827a1.2,1.2,0,0,1,.325-.884,1.243,1.243,0,0,1,.891-.363h1.67a1.153,1.153,0,0,1,.12-.005,1.2,1.2,0,0,1,1.211,1.156c.031.349.02,2.091.01,3.145a9.42,9.42,0,0,1,2.357.818,7.408,7.408,0,0,1,2.806,2.516,8.755,8.755,0,0,1,1.225,3.307,1.245,1.245,0,0,1-1.042,1.364l-4.114.622a1.267,1.267,0,0,1-.325.042,1.244,1.244,0,0,1-1.219-1.244,3.626,3.626,0,0,0-.877-1.691,2.014,2.014,0,0,0-1.463-.464,1.667,1.667,0,0,0-1.477.692,2.652,2.652,0,0,0-.441,1.6,5.006,5.006,0,0,0,1.78,3.383,15.221,15.221,0,0,0,2.184,1.719c1.26.871,2.066,1.463,2.471,1.813a16.263,16.263,0,0,1,3.114,3.31,12.427,12.427,0,0,1,.852,1.439,7.552,7.552,0,0,1,.862,3.092,7.98,7.98,0,0,1-2.088,5.69,7.745,7.745,0,0,1-3.99,2.281c-.2.051-.411.1-.623.136v3.189a1.275,1.275,0,0,1-1.282,1.3c-.123,0-.278,0-.446.005-.211,0-.441.007-.661.007S1680.415,3088.044,1680.242,3088.034Zm-7.385-12.411a12.4,12.4,0,0,0,.927,2.833,6.522,6.522,0,0,0,2.354,2.471,7.981,7.981,0,0,0,3.776,1.1.852.852,0,0,1,.8.85v3.467c.248,0,.518,0,.76-.006h.049v-3.519a.855.855,0,0,1,.755-.848,8.771,8.771,0,0,0,1.154-.208,6.086,6.086,0,0,0,3.137-1.764,6.25,6.25,0,0,0,1.655-4.517,5.881,5.881,0,0,0-.686-2.374,10.722,10.722,0,0,0-.734-1.238,14.61,14.61,0,0,0-2.806-2.967c-.366-.316-1.146-.886-2.331-1.707a16.667,16.667,0,0,1-2.427-1.921,6.592,6.592,0,0,1-2.279-4.585,4.347,4.347,0,0,1,.761-2.593,3.367,3.367,0,0,1,2.863-1.4,3.626,3.626,0,0,1,2.663.957,5.451,5.451,0,0,1,1.309,2.367l3.3-.5a8.172,8.172,0,0,0-.885-2.115,5.646,5.646,0,0,0-2.165-1.943,8.368,8.368,0,0,0-2.563-.781.852.852,0,0,1-.724-.853c.014-1.242.022-2.605.014-3.289h-.818c0,.977,0,2.9,0,3.162a.854.854,0,0,1-.815.848,7.938,7.938,0,0,0-3.844,1.065,5.7,5.7,0,0,0-2.751,5.175,6.557,6.557,0,0,0,1.021,3.561,16.8,16.8,0,0,0,3.469,3.5q2.222,1.747,3.651,2.867l.958.751a.437.437,0,0,1,.043.036,5.706,5.706,0,0,1,2.235,4.165,3.81,3.81,0,0,1-.707,2.42,4.177,4.177,0,0,1-3.37,1.713l-.14,0a3.765,3.765,0,0,1-2.6-1.023,8.1,8.1,0,0,1-1.678-3.352Zm-16.088-16.935a.851.851,0,0,1-.536-1.079c2.425-7.208,15.173-17.016,15.715-17.43a.853.853,0,1,1,1.038,1.354c-.129.1-12.875,9.9-15.135,16.62a.854.854,0,0,1-.809.581A.839.839,0,0,1,1656.77,3058.689Zm14.923-30.208-1.363-2.949a.853.853,0,0,1,1.549-.714l1.362,2.948a.853.853,0,0,1-1.548.715Z" transform="translate(-1649 -3022)"/>
</svg>
