<svg xmlns="http://www.w3.org/2000/svg" width="22.002" height="22" viewBox="0 0 22.002 22"><path d="M1423.78,68.217a11,11,0,0,0-18.129,11.517.448.448,0,1,0,.843-.3,10.106,10.106,0,1,1,16.832,3.529l-.064.069c-.038.04-.075.081-.115.12a10.116,10.116,0,0,1-14.293,0l-.062-.064c0-.041,0-.082,0-.122,0-.09,0-.18,0-.27,0-.03,0-.06,0-.089,0-.06.006-.119.01-.178,0-.035.006-.07.01-.105,0-.053.009-.107.015-.16,0-.037.01-.075.014-.112s.012-.1.02-.151.012-.076.019-.114.016-.1.025-.147.015-.076.023-.114.019-.1.03-.143.018-.077.027-.115.022-.093.035-.139.021-.077.031-.115.026-.091.039-.137.024-.076.036-.114.029-.09.044-.134.026-.075.04-.112.032-.088.049-.132.029-.074.044-.111.035-.087.053-.13.031-.073.047-.109.038-.085.058-.127l.051-.107q.031-.063.062-.125l.055-.1.067-.123.058-.1.072-.121c.02-.034.041-.067.062-.1s.05-.079.076-.118l.065-.1c.026-.039.053-.077.08-.116s.045-.064.069-.095l.085-.113.071-.092c.029-.037.059-.074.089-.11l.074-.089.094-.108.077-.086.1-.1.08-.083.1-.1.082-.079c.036-.034.072-.067.109-.1l.083-.076.114-.1.084-.071c.04-.033.08-.064.121-.1l.084-.066c.042-.033.086-.064.13-.1l.082-.06c.048-.034.1-.066.146-.1l.072-.049c.064-.042.128-.082.194-.121l.03-.019c.076-.045.152-.089.229-.132l.081-.043c.051-.027.1-.055.155-.081l.1-.049.128-.062a4.357,4.357,0,0,0,6.036,0,7.293,7.293,0,0,1,3.585,3.65.448.448,0,1,0,.82-.361,8.076,8.076,0,0,0-3.808-3.994A4.37,4.37,0,0,0,1416,68.876a.448.448,0,0,0,0,.9,3.475,3.475,0,0,1,2.581,5.805h0a3.464,3.464,0,0,1-5.162,0h0a3.471,3.471,0,0,1,.135-4.8.448.448,0,0,0-.63-.637,4.367,4.367,0,0,0-.541,5.564l-.013.007-.1.054c-.053.028-.106.055-.159.084l-.11.062-.146.084-.111.068-.138.086-.111.073-.132.089-.109.078-.127.093-.107.082-.122.1-.1.086-.118.1-.1.089-.114.1-.1.092-.11.109-.093.094-.107.114-.089.1c-.036.039-.07.08-.1.12s-.056.064-.083.1-.069.085-.1.127l-.077.1c-.036.047-.071.093-.106.141-.022.03-.045.058-.066.089-.044.061-.087.123-.129.185l-.034.049q-.079.118-.154.239c-.017.028-.033.056-.05.084-.032.053-.065.107-.1.161-.019.034-.038.069-.057.1s-.055.1-.081.148-.038.074-.057.112-.049.1-.072.145-.036.078-.054.116-.044.1-.065.145-.034.08-.051.12-.04.1-.06.145-.032.082-.047.123-.036.1-.054.147-.029.084-.043.126-.033.1-.048.149-.026.085-.039.127-.029.1-.043.151-.023.085-.034.128-.026.1-.038.154-.02.086-.03.129-.022.1-.033.157-.017.086-.025.129-.019.108-.027.162-.014.085-.02.128-.015.112-.022.168-.011.083-.015.125c-.006.059-.011.118-.016.177,0,.039-.008.079-.01.118,0,.066-.008.132-.011.2,0,.033,0,.066-.005.1,0,.1-.006.2-.006.3s0,.211.008.323a.467.467,0,0,0,.01.076v.006a.452.452,0,0,0,.023.071l0,.007a.47.47,0,0,0,.034.064l0,.008a.436.436,0,0,0,.044.056l0,0,.059.063c.045.048.089.1.136.142a11.013,11.013,0,0,0,15.56,0c.047-.047.091-.094.136-.142l.059-.063a11.006,11.006,0,0,0-.195-15.359Z" transform="translate(-1404.999 -64.999)"/></svg>